<svg xmlns="http://www.w3.org/2000/svg" version="1.1" xmlns:xlink="http://www.w3.org/1999/xlink" xmlns:svgjs="http://svgjs.dev/svgjs" width="1440" height="560" preserveAspectRatio="none" viewBox="0 0 1440 560"><g mask="url(&quot;#SvgjsMask1221&quot;)" fill="none"><rect width="1440" height="560" x="0" y="0" fill="url(&quot;#SvgjsLinearGradient1222&quot;)"></rect><path d="M0 379.88L10 353.79L20 295.2L30 233.54L40 276.17L50 275.81L60 244.65L70 302.37L80 371.6L90 426.89L100 382.35L110 402.14L120 426.06L130 389.62L140 333.3L150 285.4L160 335.5L170 341.16L180 398.96L190 345.35L200 339.88L210 408.82L220 368.93L230 355.05L240 413.55L250 362.13L260 386.1L270 333.28L280 401.18L290 466.56L300 398L310 461.2L320 474.59L330 518.61L340 488.53L350 465.82L360 466.46L370 452.45L380 383.13L390 392.77L400 334.52L410 393.29L420 355.48L430 354.2L440 286.35L450 237.88L460 233.62L470 292.3L480 261.56L490 224.52L500 181.1L510 158.4L520 121.74L530 129.91L540 116.98L550 116.53L560 176.23L570 137.03L580 115.58L590 148.14L600 86.41L610 152.02L620 166.66L630 187.17L640 255.26L650 186.44L660 164.82L670 150.93L680 163.74L690 126.85L700 114.56L710 173.14L720 224.34L730 275.19L740 275.75L750 231.59L760 299.53L770 280.21L780 301.45L790 281.55L800 281.92L810 305.92L820 310.21L830 244.5L840 296.08L850 248.35L860 252.11L870 220.51L880 168.92L890 154.16L900 88.37L910 66.15L920 90.44L930 43.06L940 29.08L950 18.51L960 45.79L970 20.71L980 64.33L990 100.18L1000 139.92L1010 95.26L1020 110.69L1030 116.39L1040 63.55L1050 32.36L1060 91.27L1070 47.37L1080 1.24L1090 42.82L1100 85.53L1110 153.28L1120 173.91L1130 118.37L1140 81.81L1150 135.54L1160 175.61L1170 208.5L1180 154.7L1190 192.07L1200 246.01L1210 302.1L1220 237.64L1230 247.9L1240 243.71L1250 212.31L1260 196.65L1270 234.03L1280 275.32L1290 208.62L1300 199.93L1310 198.92L1320 219.58L1330 255.02L1340 221.37L1350 208.4L1360 276.25L1370 234.49L1380 196.36L1390 197.64L1400 259.34L1410 260.39L1420 317.98L1430 264.24L1440 277.39" stroke="rgba(15, 157, 88, 1)" stroke-width="2"></path><path d="M0 379.88L10 353.79L20 295.2L30 233.54L40 276.17L50 275.81L60 244.65L70 302.37L80 371.6L90 426.89L100 382.35L110 402.14L120 426.06L130 389.62L140 333.3L150 285.4L160 335.5L170 341.16L180 398.96L190 345.35L200 339.88L210 408.82L220 368.93L230 355.05L240 413.55L250 362.13L260 386.1L270 333.28L280 401.18L290 466.56L300 398L310 461.2L320 474.59L330 518.61L340 488.53L350 465.82L360 466.46L370 452.45L380 383.13L390 392.77L400 334.52L410 393.29L420 355.48L430 354.2L440 286.35L450 237.88L460 233.62L470 292.3L480 261.56L490 224.52L500 181.1L510 158.4L520 121.74L530 129.91L540 116.98L550 116.53L560 176.23L570 137.03L580 115.58L590 148.14L600 86.41L610 152.02L620 166.66L630 187.17L640 255.26L650 186.44L660 164.82L670 150.93L680 163.74L690 126.85L700 114.56L710 173.14L720 224.34L730 275.19L740 275.75L750 231.59L760 299.53L770 280.21L780 301.45L790 281.55L800 281.92L810 305.92L820 310.21L830 244.5L840 296.08L850 248.35L860 252.11L870 220.51L880 168.92L890 154.16L900 88.37L910 66.15L920 90.44L930 43.06L940 29.08L950 18.51L960 45.79L970 20.71L980 64.33L990 100.18L1000 139.92L1010 95.26L1020 110.69L1030 116.39L1040 63.55L1050 32.36L1060 91.27L1070 47.37L1080 1.24L1090 42.82L1100 85.53L1110 153.28L1120 173.91L1130 118.37L1140 81.81L1150 135.54L1160 175.61L1170 208.5L1180 154.7L1190 192.07L1200 246.01L1210 302.1L1220 237.64L1230 247.9L1240 243.71L1250 212.31L1260 196.65L1270 234.03L1280 275.32L1290 208.62L1300 199.93L1310 198.92L1320 219.58L1330 255.02L1340 221.37L1350 208.4L1360 276.25L1370 234.49L1380 196.36L1390 197.64L1400 259.34L1410 260.39L1420 317.98L1430 264.24L1440 277.39L1440 560L0 560z" fill="url(&quot;#SvgjsLinearGradient1223&quot;)"></path></g><defs><mask id="SvgjsMask1221"><rect width="1440" height="560" fill="#ffffff"></rect></mask><linearGradient x1="15.28%" y1="-39.29%" x2="84.72%" y2="139.29%" gradientUnits="userSpaceOnUse" id="SvgjsLinearGradient1222"><stop stop-color="#0e2a47" offset="0"></stop><stop stop-color="rgba(137, 0, 158, 0)" offset="0.03"></stop><stop stop-color="rgba(0, 69, 158, 0)" offset="0.05"></stop><stop stop-color="rgba(0, 69, 158, 0)" offset="0.05"></stop><stop stop-color="rgba(0, 69, 158, 0)" offset="0.1"></stop><stop stop-color="rgba(0, 69, 158, 0)" offset="0.1"></stop><stop stop-color="rgba(0, 69, 158, 0)" offset="0.39"></stop><stop stop-color="rgba(0, 69, 158, 0)" offset="0.39"></stop><stop stop-color="rgba(137, 0, 158, 0)" offset="0.47"></stop><stop stop-color="rgba(0, 69, 158, 0)" offset="1"></stop></linearGradient><linearGradient x1="50%" y1="0%" x2="50%" y2="100%" id="SvgjsLinearGradient1223"><stop stop-opacity="0.65" stop-color="rgba(15, 157, 88, 1)" offset="0"></stop><stop stop-opacity="0" stop-color="#55efa4" offset="0.8"></stop></linearGradient></defs></svg>