<svg xmlns="http://www.w3.org/2000/svg" version="1.1" xmlns:xlink="http://www.w3.org/1999/xlink" xmlns:svgjs="http://svgjs.dev/svgjs" width="1440" height="560" preserveAspectRatio="none" viewBox="0 0 1440 560"><g mask="url(&quot;#SvgjsMask1003&quot;)" fill="none"><rect width="1440" height="560" x="0" y="0" fill="url(&quot;#SvgjsLinearGradient1004&quot;)"></rect><path d="M-51.76 545.89L-51.76 545.89" stroke="#132e65" stroke-width="1.5"></path><path d="M-51.76 545.89L-59.81 694.22" stroke="#132e65" stroke-width="1.5"></path><path d="M-51.76 545.89L47.44 671.29" stroke="#132e65" stroke-width="1.5"></path><path d="M-51.76 545.89L70.91 406.07" stroke="#132e65" stroke-width="1.5"></path><path d="M-51.76 545.89L231.6 493.31" stroke="#132e65" stroke-width="1.5"></path><path d="M-59.81 694.22L-59.81 694.22" stroke="#132e65" stroke-width="1.5"></path><path d="M-59.81 694.22L47.44 671.29" stroke="#132e65" stroke-width="1.5"></path><path d="M70.91 406.07L70.91 406.07" stroke="#132e65" stroke-width="1.5"></path><path d="M70.91 406.07L191.87 363.07" stroke="#132e65" stroke-width="1.5"></path><path d="M70.91 406.07L231.6 493.31" stroke="#132e65" stroke-width="1.5"></path><path d="M70.91 406.07L47.44 671.29" stroke="#132e65" stroke-width="1.5"></path><path d="M70.91 406.07L350.53 365.3" stroke="#132e65" stroke-width="1.5"></path><path d="M47.44 671.29L47.44 671.29" stroke="#132e65" stroke-width="1.5"></path><path d="M47.44 671.29L229.1 642.14" stroke="#132e65" stroke-width="1.5"></path><path d="M47.44 671.29L231.6 493.31" stroke="#132e65" stroke-width="1.5"></path><path d="M191.87 363.07L191.87 363.07" stroke="#132e65" stroke-width="1.5"></path><path d="M191.87 363.07L231.6 493.31" stroke="#132e65" stroke-width="1.5"></path><path d="M191.87 363.07L350.53 365.3" stroke="#132e65" stroke-width="1.5"></path><path d="M231.6 493.31L231.6 493.31" stroke="#132e65" stroke-width="1.5"></path><path d="M231.6 493.31L345.17 551.35" stroke="#132e65" stroke-width="1.5"></path><path d="M231.6 493.31L229.1 642.14" stroke="#132e65" stroke-width="1.5"></path><path d="M231.6 493.31L350.53 365.3" stroke="#132e65" stroke-width="1.5"></path><path d="M229.1 642.14L229.1 642.14" stroke="#132e65" stroke-width="1.5"></path><path d="M229.1 642.14L345.17 551.35" stroke="#132e65" stroke-width="1.5"></path><path d="M350.53 365.3L350.53 365.3" stroke="#132e65" stroke-width="1.5"></path><path d="M350.53 365.3L525.51 351.07" stroke="#132e65" stroke-width="1.5"></path><path d="M350.53 365.3L345.17 551.35" stroke="#132e65" stroke-width="1.5"></path><path d="M345.17 551.35L345.17 551.35" stroke="#132e65" stroke-width="1.5"></path><path d="M345.17 551.35L502 505.49" stroke="#132e65" stroke-width="1.5"></path><path d="M345.17 551.35L404.05 705.66" stroke="#132e65" stroke-width="1.5"></path><path d="M345.17 551.35L552.49 674.68" stroke="#132e65" stroke-width="1.5"></path><path d="M404.05 705.66L404.05 705.66" stroke="#132e65" stroke-width="1.5"></path><path d="M404.05 705.66L552.49 674.68" stroke="#132e65" stroke-width="1.5"></path><path d="M404.05 705.66L229.1 642.14" stroke="#132e65" stroke-width="1.5"></path><path d="M525.51 351.07L525.51 351.07" stroke="#132e65" stroke-width="1.5"></path><path d="M525.51 351.07L681.23 350.26" stroke="#132e65" stroke-width="1.5"></path><path d="M525.51 351.07L502 505.49" stroke="#132e65" stroke-width="1.5"></path><path d="M502 505.49L502 505.49" stroke="#132e65" stroke-width="1.5"></path><path d="M502 505.49L675.02 523.98" stroke="#132e65" stroke-width="1.5"></path><path d="M502 505.49L552.49 674.68" stroke="#132e65" stroke-width="1.5"></path><path d="M552.49 674.68L552.49 674.68" stroke="#132e65" stroke-width="1.5"></path><path d="M552.49 674.68L649.33 710.32" stroke="#132e65" stroke-width="1.5"></path><path d="M681.23 350.26L681.23 350.26" stroke="#132e65" stroke-width="1.5"></path><path d="M681.23 350.26L821.83 344.96" stroke="#132e65" stroke-width="1.5"></path><path d="M681.23 350.26L675.02 523.98" stroke="#132e65" stroke-width="1.5"></path><path d="M681.23 350.26L823.67 239.35" stroke="#132e65" stroke-width="1.5"></path><path d="M681.23 350.26L800.61 549.53" stroke="#132e65" stroke-width="1.5"></path><path d="M675.02 523.98L675.02 523.98" stroke="#132e65" stroke-width="1.5"></path><path d="M675.02 523.98L800.61 549.53" stroke="#132e65" stroke-width="1.5"></path><path d="M649.33 710.32L649.33 710.32" stroke="#132e65" stroke-width="1.5"></path><path d="M649.33 710.32L824.32 644.01" stroke="#132e65" stroke-width="1.5"></path><path d="M837.73 86.89L837.73 86.89" stroke="#132e65" stroke-width="1.5"></path><path d="M837.73 86.89L823.67 239.35" stroke="#132e65" stroke-width="1.5"></path><path d="M837.73 86.89L1009.79 62.87" stroke="#132e65" stroke-width="1.5"></path><path d="M837.73 86.89L982.2 243.09" stroke="#132e65" stroke-width="1.5"></path><path d="M837.73 86.89L1092.11 103.78" stroke="#132e65" stroke-width="1.5"></path><path d="M823.67 239.35L823.67 239.35" stroke="#132e65" stroke-width="1.5"></path><path d="M823.67 239.35L821.83 344.96" stroke="#132e65" stroke-width="1.5"></path><path d="M823.67 239.35L982.2 243.09" stroke="#132e65" stroke-width="1.5"></path><path d="M823.67 239.35L997.25 409.26" stroke="#132e65" stroke-width="1.5"></path><path d="M823.67 239.35L1009.79 62.87" stroke="#132e65" stroke-width="1.5"></path><path d="M821.83 344.96L821.83 344.96" stroke="#132e65" stroke-width="1.5"></path><path d="M821.83 344.96L997.25 409.26" stroke="#132e65" stroke-width="1.5"></path><path d="M821.83 344.96L982.2 243.09" stroke="#132e65" stroke-width="1.5"></path><path d="M800.61 549.53L800.61 549.53" stroke="#132e65" stroke-width="1.5"></path><path d="M800.61 549.53L824.32 644.01" stroke="#132e65" stroke-width="1.5"></path><path d="M824.32 644.01L824.32 644.01" stroke="#132e65" stroke-width="1.5"></path><path d="M824.32 644.01L1001.09 671.5" stroke="#132e65" stroke-width="1.5"></path><path d="M1007.98 -108.72L1007.98 -108.72" stroke="#132e65" stroke-width="1.5"></path><path d="M1007.98 -108.72L1154.38 -66.95" stroke="#132e65" stroke-width="1.5"></path><path d="M1007.98 -108.72L1009.79 62.87" stroke="#132e65" stroke-width="1.5"></path><path d="M1009.79 62.87L1009.79 62.87" stroke="#132e65" stroke-width="1.5"></path><path d="M1009.79 62.87L1092.11 103.78" stroke="#132e65" stroke-width="1.5"></path><path d="M982.2 243.09L982.2 243.09" stroke="#132e65" stroke-width="1.5"></path><path d="M982.2 243.09L1125.12 217.31" stroke="#132e65" stroke-width="1.5"></path><path d="M982.2 243.09L997.25 409.26" stroke="#132e65" stroke-width="1.5"></path><path d="M982.2 243.09L1092.11 103.78" stroke="#132e65" stroke-width="1.5"></path><path d="M982.2 243.09L1009.79 62.87" stroke="#132e65" stroke-width="1.5"></path><path d="M997.25 409.26L997.25 409.26" stroke="#132e65" stroke-width="1.5"></path><path d="M997.25 409.26L996.18 497.54" stroke="#132e65" stroke-width="1.5"></path><path d="M997.25 409.26L1146.86 558.73" stroke="#132e65" stroke-width="1.5"></path><path d="M997.25 409.26L1125.12 217.31" stroke="#132e65" stroke-width="1.5"></path><path d="M996.18 497.54L996.18 497.54" stroke="#132e65" stroke-width="1.5"></path><path d="M996.18 497.54L1146.86 558.73" stroke="#132e65" stroke-width="1.5"></path><path d="M1001.09 671.5L1001.09 671.5" stroke="#132e65" stroke-width="1.5"></path><path d="M1001.09 671.5L1112 698.29" stroke="#132e65" stroke-width="1.5"></path><path d="M1001.09 671.5L996.18 497.54" stroke="#132e65" stroke-width="1.5"></path><path d="M1154.38 -66.95L1154.38 -66.95" stroke="#132e65" stroke-width="1.5"></path><path d="M1154.38 -66.95L1272.26 -79.57" stroke="#132e65" stroke-width="1.5"></path><path d="M1154.38 -66.95L1242.11 50" stroke="#132e65" stroke-width="1.5"></path><path d="M1154.38 -66.95L1092.11 103.78" stroke="#132e65" stroke-width="1.5"></path><path d="M1154.38 -66.95L1009.79 62.87" stroke="#132e65" stroke-width="1.5"></path><path d="M1092.11 103.78L1092.11 103.78" stroke="#132e65" stroke-width="1.5"></path><path d="M1092.11 103.78L1125.12 217.31" stroke="#132e65" stroke-width="1.5"></path><path d="M1092.11 103.78L1242.11 50" stroke="#132e65" stroke-width="1.5"></path><path d="M1125.12 217.31L1125.12 217.31" stroke="#132e65" stroke-width="1.5"></path><path d="M1125.12 217.31L1248.13 199.3" stroke="#132e65" stroke-width="1.5"></path><path d="M1125.12 217.31L1009.79 62.87" stroke="#132e65" stroke-width="1.5"></path><path d="M1125.12 217.31L1242.11 50" stroke="#132e65" stroke-width="1.5"></path><path d="M1146.86 558.73L1146.86 558.73" stroke="#132e65" stroke-width="1.5"></path><path d="M1146.86 558.73L1112 698.29" stroke="#132e65" stroke-width="1.5"></path><path d="M1112 698.29L1112 698.29" stroke="#132e65" stroke-width="1.5"></path><path d="M1112 698.29L1281.56 687.25" stroke="#132e65" stroke-width="1.5"></path><path d="M1272.26 -79.57L1272.26 -79.57" stroke="#132e65" stroke-width="1.5"></path><path d="M1272.26 -79.57L1242.11 50" stroke="#132e65" stroke-width="1.5"></path><path d="M1272.26 -79.57L1422.59 -84.22" stroke="#132e65" stroke-width="1.5"></path><path d="M1242.11 50L1242.11 50" stroke="#132e65" stroke-width="1.5"></path><path d="M1248.13 199.3L1248.13 199.3" stroke="#132e65" stroke-width="1.5"></path><path d="M1248.13 199.3L1242.11 50" stroke="#132e65" stroke-width="1.5"></path><path d="M1248.13 199.3L1280.34 356.09" stroke="#132e65" stroke-width="1.5"></path><path d="M1248.13 199.3L1092.11 103.78" stroke="#132e65" stroke-width="1.5"></path><path d="M1248.13 199.3L1448.49 191.78" stroke="#132e65" stroke-width="1.5"></path><path d="M1280.34 356.09L1280.34 356.09" stroke="#132e65" stroke-width="1.5"></path><path d="M1280.34 356.09L1306.77 495.6" stroke="#132e65" stroke-width="1.5"></path><path d="M1306.77 495.6L1306.77 495.6" stroke="#132e65" stroke-width="1.5"></path><path d="M1306.77 495.6L1453.94 407.26" stroke="#132e65" stroke-width="1.5"></path><path d="M1306.77 495.6L1146.86 558.73" stroke="#132e65" stroke-width="1.5"></path><path d="M1306.77 495.6L1392.73 648.11" stroke="#132e65" stroke-width="1.5"></path><path d="M1306.77 495.6L1281.56 687.25" stroke="#132e65" stroke-width="1.5"></path><path d="M1306.77 495.6L1538.28 510.89" stroke="#132e65" stroke-width="1.5"></path><path d="M1281.56 687.25L1281.56 687.25" stroke="#132e65" stroke-width="1.5"></path><path d="M1281.56 687.25L1392.73 648.11" stroke="#132e65" stroke-width="1.5"></path><path d="M1422.59 -84.22L1422.59 -84.22" stroke="#132e65" stroke-width="1.5"></path><path d="M1422.59 -84.22L1420.07 88.63" stroke="#132e65" stroke-width="1.5"></path><path d="M1422.59 -84.22L1606.05 -102.04" stroke="#132e65" stroke-width="1.5"></path><path d="M1422.59 -84.22L1242.11 50" stroke="#132e65" stroke-width="1.5"></path><path d="M1422.59 -84.22L1561.44 96.9" stroke="#132e65" stroke-width="1.5"></path><path d="M1420.07 88.63L1420.07 88.63" stroke="#132e65" stroke-width="1.5"></path><path d="M1420.07 88.63L1448.49 191.78" stroke="#132e65" stroke-width="1.5"></path><path d="M1420.07 88.63L1561.44 96.9" stroke="#132e65" stroke-width="1.5"></path><path d="M1420.07 88.63L1242.11 50" stroke="#132e65" stroke-width="1.5"></path><path d="M1420.07 88.63L1248.13 199.3" stroke="#132e65" stroke-width="1.5"></path><path d="M1448.49 191.78L1448.49 191.78" stroke="#132e65" stroke-width="1.5"></path><path d="M1448.49 191.78L1561.44 96.9" stroke="#132e65" stroke-width="1.5"></path><path d="M1448.49 191.78L1542.98 374.96" stroke="#132e65" stroke-width="1.5"></path><path d="M1448.49 191.78L1453.94 407.26" stroke="#132e65" stroke-width="1.5"></path><path d="M1448.49 191.78L1280.34 356.09" stroke="#132e65" stroke-width="1.5"></path><path d="M1453.94 407.26L1453.94 407.26" stroke="#132e65" stroke-width="1.5"></path><path d="M1453.94 407.26L1542.98 374.96" stroke="#132e65" stroke-width="1.5"></path><path d="M1453.94 407.26L1538.28 510.89" stroke="#132e65" stroke-width="1.5"></path><path d="M1453.94 407.26L1280.34 356.09" stroke="#132e65" stroke-width="1.5"></path><path d="M1392.73 648.11L1392.73 648.11" stroke="#132e65" stroke-width="1.5"></path><path d="M1392.73 648.11L1538.28 510.89" stroke="#132e65" stroke-width="1.5"></path><path d="M1606.05 -102.04L1606.05 -102.04" stroke="#132e65" stroke-width="1.5"></path><path d="M1606.05 -102.04L1561.44 96.9" stroke="#132e65" stroke-width="1.5"></path><path d="M1561.44 96.9L1561.44 96.9" stroke="#132e65" stroke-width="1.5"></path><path d="M1561.44 96.9L1542.98 374.96" stroke="#132e65" stroke-width="1.5"></path><path d="M1561.44 96.9L1242.11 50" stroke="#132e65" stroke-width="1.5"></path><path d="M1542.98 374.96L1542.98 374.96" stroke="#132e65" stroke-width="1.5"></path><path d="M1542.98 374.96L1538.28 510.89" stroke="#132e65" stroke-width="1.5"></path><path d="M1542.98 374.96L1280.34 356.09" stroke="#132e65" stroke-width="1.5"></path><path d="M1542.98 374.96L1306.77 495.6" stroke="#132e65" stroke-width="1.5"></path><path d="M1538.28 510.89L1538.28 510.89" stroke="#132e65" stroke-width="1.5"></path><path d="M1538.28 510.89L1599.42 669.98" stroke="#132e65" stroke-width="1.5"></path><path d="M1599.42 669.98L1599.42 669.98" stroke="#132e65" stroke-width="1.5"></path><path d="M1599.42 669.98L1392.73 648.11" stroke="#132e65" stroke-width="1.5"></path><path d="M1599.42 669.98L1453.94 407.26" stroke="#132e65" stroke-width="1.5"></path><circle r="5" cx="-51.76" cy="545.89" fill="#132e65"></circle><circle r="5" cx="-59.81" cy="694.22" fill="#132e65"></circle><circle r="5" cx="70.91" cy="406.07" fill="#132e65"></circle><circle r="5" cx="47.44" cy="671.29" fill="#132e65"></circle><circle r="5" cx="191.87" cy="363.07" fill="#132e65"></circle><circle r="5" cx="231.6" cy="493.31" fill="#132e65"></circle><circle r="5" cx="229.1" cy="642.14" fill="#132e65"></circle><circle r="5" cx="350.53" cy="365.3" fill="#132e65"></circle><circle r="5" cx="345.17" cy="551.35" fill="#132e65"></circle><circle r="5" cx="404.05" cy="705.66" fill="#132e65"></circle><circle r="5" cx="525.51" cy="351.07" fill="#132e65"></circle><circle r="5" cx="502" cy="505.49" fill="#132e65"></circle><circle r="5" cx="552.49" cy="674.68" fill="#132e65"></circle><circle r="5" cx="681.23" cy="350.26" fill="#132e65"></circle><circle r="5" cx="675.02" cy="523.98" fill="#132e65"></circle><circle r="5" cx="649.33" cy="710.32" fill="#132e65"></circle><circle r="5" cx="837.73" cy="86.89" fill="#132e65"></circle><circle r="5" cx="823.67" cy="239.35" fill="#132e65"></circle><circle r="5" cx="821.83" cy="344.96" fill="#132e65"></circle><circle r="5" cx="800.61" cy="549.53" fill="#132e65"></circle><circle r="5" cx="824.32" cy="644.01" fill="#132e65"></circle><circle r="5" cx="1007.98" cy="-108.72" fill="#132e65"></circle><circle r="5" cx="1009.79" cy="62.87" fill="#132e65"></circle><circle r="5" cx="982.2" cy="243.09" fill="#132e65"></circle><circle r="5" cx="997.25" cy="409.26" fill="#132e65"></circle><circle r="5" cx="996.18" cy="497.54" fill="#132e65"></circle><circle r="5" cx="1001.09" cy="671.5" fill="#132e65"></circle><circle r="5" cx="1154.38" cy="-66.95" fill="#132e65"></circle><circle r="5" cx="1092.11" cy="103.78" fill="#132e65"></circle><circle r="5" cx="1125.12" cy="217.31" fill="#132e65"></circle><circle r="5" cx="1146.86" cy="558.73" fill="#132e65"></circle><circle r="5" cx="1112" cy="698.29" fill="#132e65"></circle><circle r="5" cx="1272.26" cy="-79.57" fill="#132e65"></circle><circle r="5" cx="1242.11" cy="50" fill="#132e65"></circle><circle r="5" cx="1248.13" cy="199.3" fill="#132e65"></circle><circle r="5" cx="1280.34" cy="356.09" fill="#132e65"></circle><circle r="5" cx="1306.77" cy="495.6" fill="#132e65"></circle><circle r="5" cx="1281.56" cy="687.25" fill="#132e65"></circle><circle r="5" cx="1422.59" cy="-84.22" fill="#132e65"></circle><circle r="5" cx="1420.07" cy="88.63" fill="#132e65"></circle><circle r="5" cx="1448.49" cy="191.78" fill="#132e65"></circle><circle r="5" cx="1453.94" cy="407.26" fill="#132e65"></circle><circle r="5" cx="1392.73" cy="648.11" fill="#132e65"></circle><circle r="5" cx="1606.05" cy="-102.04" fill="#132e65"></circle><circle r="5" cx="1561.44" cy="96.9" fill="#132e65"></circle><circle r="5" cx="1542.98" cy="374.96" fill="#132e65"></circle><circle r="5" cx="1538.28" cy="510.89" fill="#132e65"></circle><circle r="5" cx="1599.42" cy="669.98" fill="#132e65"></circle><path d="M1268.89 192.76L1268.89 192.76" stroke="hsl(290.4, 77.2%, 51.5%)" stroke-width="1.5"></path><path d="M1268.89 192.76L1265.84 96.74" stroke="hsl(290.4, 77.2%, 51.5%)" stroke-width="1.5"></path><path d="M1268.89 192.76L1137.13 194.57" stroke="hsl(290.4, 77.2%, 51.5%)" stroke-width="1.5"></path><path d="M1268.89 192.76L1396.83 93.16" stroke="hsl(290.4, 77.2%, 51.5%)" stroke-width="1.5"></path><path d="M1268.89 192.76L1442.8 252.62" stroke="hsl(290.4, 77.2%, 51.5%)" stroke-width="1.5"></path><path d="M1268.89 192.76L1308.93 372.7" stroke="hsl(290.4, 77.2%, 51.5%)" stroke-width="1.5"></path><path d="M1268.89 192.76L1429.63 359.23" stroke="hsl(290.4, 77.2%, 51.5%)" stroke-width="1.5"></path><path d="M1308.93 372.7L1308.93 372.7" stroke="hsl(290.4, 77.2%, 51.5%)" stroke-width="1.5"></path><path d="M1308.93 372.7L1429.63 359.23" stroke="hsl(290.4, 77.2%, 51.5%)" stroke-width="1.5"></path><path d="M1308.93 372.7L1426.06 493.22" stroke="hsl(290.4, 77.2%, 51.5%)" stroke-width="1.5"></path><path d="M1308.93 372.7L1280.8 538.57" stroke="hsl(290.4, 77.2%, 51.5%)" stroke-width="1.5"></path><path d="M1308.93 372.7L1442.8 252.62" stroke="hsl(290.4, 77.2%, 51.5%)" stroke-width="1.5"></path><path d="M1308.93 372.7L1098.41 409.9" stroke="hsl(290.4, 77.2%, 51.5%)" stroke-width="1.5"></path><path d="M1270.18 686.54L1270.18 686.54" stroke="hsl(290.4, 77.2%, 51.5%)" stroke-width="1.5"></path><path d="M1270.18 686.54L1280.8 538.57" stroke="hsl(290.4, 77.2%, 51.5%)" stroke-width="1.5"></path><path d="M1270.18 686.54L1112 646.32" stroke="hsl(290.4, 77.2%, 51.5%)" stroke-width="1.5"></path><path d="M1270.18 686.54L1461.5 654.6" stroke="hsl(290.4, 77.2%, 51.5%)" stroke-width="1.5"></path><path d="M1389.99 -64.95L1389.99 -64.95" stroke="hsl(290.4, 77.2%, 51.5%)" stroke-width="1.5"></path><path d="M1389.99 -64.95L1240.83 -108.64" stroke="hsl(290.4, 77.2%, 51.5%)" stroke-width="1.5"></path><path d="M1389.99 -64.95L1396.83 93.16" stroke="hsl(290.4, 77.2%, 51.5%)" stroke-width="1.5"></path><path d="M1389.99 -64.95L1547.56 -96.17" stroke="hsl(290.4, 77.2%, 51.5%)" stroke-width="1.5"></path><path d="M1389.99 -64.95L1265.84 96.74" stroke="hsl(290.4, 77.2%, 51.5%)" stroke-width="1.5"></path><path d="M1442.8 252.62L1442.8 252.62" stroke="hsl(290.4, 77.2%, 51.5%)" stroke-width="1.5"></path><path d="M1442.8 252.62L1429.63 359.23" stroke="hsl(290.4, 77.2%, 51.5%)" stroke-width="1.5"></path><path d="M1442.8 252.62L1566.18 195.56" stroke="hsl(290.4, 77.2%, 51.5%)" stroke-width="1.5"></path><path d="M1442.8 252.62L1559.67 365.31" stroke="hsl(290.4, 77.2%, 51.5%)" stroke-width="1.5"></path><path d="M1442.8 252.62L1396.83 93.16" stroke="hsl(290.4, 77.2%, 51.5%)" stroke-width="1.5"></path><path d="M1461.5 654.6L1461.5 654.6" stroke="hsl(290.4, 77.2%, 51.5%)" stroke-width="1.5"></path><path d="M1461.5 654.6L1553.7 658.51" stroke="hsl(290.4, 77.2%, 51.5%)" stroke-width="1.5"></path><path d="M1461.5 654.6L1426.06 493.22" stroke="hsl(290.4, 77.2%, 51.5%)" stroke-width="1.5"></path><path d="M1461.5 654.6L1553.34 501.92" stroke="hsl(290.4, 77.2%, 51.5%)" stroke-width="1.5"></path><path d="M1547.56 -96.17L1547.56 -96.17" stroke="hsl(290.4, 77.2%, 51.5%)" stroke-width="1.5"></path><path d="M1547.56 -96.17L1539.35 86.77" stroke="hsl(290.4, 77.2%, 51.5%)" stroke-width="1.5"></path><path d="M1547.56 -96.17L1396.83 93.16" stroke="hsl(290.4, 77.2%, 51.5%)" stroke-width="1.5"></path><path d="M-70.93 549.87L-70.93 549.87" stroke="hsl(290.4, 77.2%, 51.5%)" stroke-width="1.5"></path><path d="M-70.93 549.87L-106.92 638.72" stroke="hsl(290.4, 77.2%, 51.5%)" stroke-width="1.5"></path><path d="M-70.93 549.87L52.59 550.33" stroke="hsl(290.4, 77.2%, 51.5%)" stroke-width="1.5"></path><path d="M-70.93 549.87L44.75 659.4" stroke="hsl(290.4, 77.2%, 51.5%)" stroke-width="1.5"></path><path d="M-70.93 549.87L227.86 678.68" stroke="hsl(290.4, 77.2%, 51.5%)" stroke-width="1.5"></path><path d="M-70.93 549.87L364.89 495.34" stroke="hsl(290.4, 77.2%, 51.5%)" stroke-width="1.5"></path><path d="M-106.92 638.72L-106.92 638.72" stroke="hsl(290.4, 77.2%, 51.5%)" stroke-width="1.5"></path><path d="M-106.92 638.72L44.75 659.4" stroke="hsl(290.4, 77.2%, 51.5%)" stroke-width="1.5"></path><path d="M-106.92 638.72L52.59 550.33" stroke="hsl(290.4, 77.2%, 51.5%)" stroke-width="1.5"></path><path d="M52.59 550.33L52.59 550.33" stroke="hsl(290.4, 77.2%, 51.5%)" stroke-width="1.5"></path><path d="M52.59 550.33L44.75 659.4" stroke="hsl(290.4, 77.2%, 51.5%)" stroke-width="1.5"></path><path d="M52.59 550.33L227.86 678.68" stroke="hsl(290.4, 77.2%, 51.5%)" stroke-width="1.5"></path><path d="M52.59 550.33L364.89 495.34" stroke="hsl(290.4, 77.2%, 51.5%)" stroke-width="1.5"></path><path d="M44.75 659.4L44.75 659.4" stroke="hsl(290.4, 77.2%, 51.5%)" stroke-width="1.5"></path><path d="M227.86 678.68L227.86 678.68" stroke="hsl(290.4, 77.2%, 51.5%)" stroke-width="1.5"></path><path d="M227.86 678.68L367.53 674.49" stroke="hsl(290.4, 77.2%, 51.5%)" stroke-width="1.5"></path><path d="M227.86 678.68L44.75 659.4" stroke="hsl(290.4, 77.2%, 51.5%)" stroke-width="1.5"></path><path d="M227.86 678.68L364.89 495.34" stroke="hsl(290.4, 77.2%, 51.5%)" stroke-width="1.5"></path><path d="M227.86 678.68L520.93 652.62" stroke="hsl(290.4, 77.2%, 51.5%)" stroke-width="1.5"></path><path d="M364.89 495.34L364.89 495.34" stroke="hsl(290.4, 77.2%, 51.5%)" stroke-width="1.5"></path><path d="M364.89 495.34L491.3 494.75" stroke="hsl(290.4, 77.2%, 51.5%)" stroke-width="1.5"></path><path d="M364.89 495.34L367.53 674.49" stroke="hsl(290.4, 77.2%, 51.5%)" stroke-width="1.5"></path><path d="M364.89 495.34L533.22 408.54" stroke="hsl(290.4, 77.2%, 51.5%)" stroke-width="1.5"></path><path d="M364.89 495.34L520.93 652.62" stroke="hsl(290.4, 77.2%, 51.5%)" stroke-width="1.5"></path><path d="M367.53 674.49L367.53 674.49" stroke="hsl(290.4, 77.2%, 51.5%)" stroke-width="1.5"></path><path d="M367.53 674.49L520.93 652.62" stroke="hsl(290.4, 77.2%, 51.5%)" stroke-width="1.5"></path><path d="M533.22 408.54L533.22 408.54" stroke="hsl(290.4, 77.2%, 51.5%)" stroke-width="1.5"></path><path d="M533.22 408.54L491.3 494.75" stroke="hsl(290.4, 77.2%, 51.5%)" stroke-width="1.5"></path><path d="M533.22 408.54L705.39 410.04" stroke="hsl(290.4, 77.2%, 51.5%)" stroke-width="1.5"></path><path d="M533.22 408.54L652.79 551.01" stroke="hsl(290.4, 77.2%, 51.5%)" stroke-width="1.5"></path><path d="M533.22 408.54L520.93 652.62" stroke="hsl(290.4, 77.2%, 51.5%)" stroke-width="1.5"></path><path d="M491.3 494.75L491.3 494.75" stroke="hsl(290.4, 77.2%, 51.5%)" stroke-width="1.5"></path><path d="M491.3 494.75L520.93 652.62" stroke="hsl(290.4, 77.2%, 51.5%)" stroke-width="1.5"></path><path d="M491.3 494.75L652.79 551.01" stroke="hsl(290.4, 77.2%, 51.5%)" stroke-width="1.5"></path><path d="M491.3 494.75L367.53 674.49" stroke="hsl(290.4, 77.2%, 51.5%)" stroke-width="1.5"></path><path d="M491.3 494.75L705.39 410.04" stroke="hsl(290.4, 77.2%, 51.5%)" stroke-width="1.5"></path><path d="M520.93 652.62L520.93 652.62" stroke="hsl(290.4, 77.2%, 51.5%)" stroke-width="1.5"></path><path d="M520.93 652.62L657.06 700.2" stroke="hsl(290.4, 77.2%, 51.5%)" stroke-width="1.5"></path><path d="M705.39 410.04L705.39 410.04" stroke="hsl(290.4, 77.2%, 51.5%)" stroke-width="1.5"></path><path d="M705.39 410.04L787.93 526.32" stroke="hsl(290.4, 77.2%, 51.5%)" stroke-width="1.5"></path><path d="M705.39 410.04L652.79 551.01" stroke="hsl(290.4, 77.2%, 51.5%)" stroke-width="1.5"></path><path d="M705.39 410.04L859.99 381.48" stroke="hsl(290.4, 77.2%, 51.5%)" stroke-width="1.5"></path><path d="M652.79 551.01L652.79 551.01" stroke="hsl(290.4, 77.2%, 51.5%)" stroke-width="1.5"></path><path d="M652.79 551.01L787.93 526.32" stroke="hsl(290.4, 77.2%, 51.5%)" stroke-width="1.5"></path><path d="M652.79 551.01L657.06 700.2" stroke="hsl(290.4, 77.2%, 51.5%)" stroke-width="1.5"></path><path d="M652.79 551.01L520.93 652.62" stroke="hsl(290.4, 77.2%, 51.5%)" stroke-width="1.5"></path><path d="M657.06 700.2L657.06 700.2" stroke="hsl(290.4, 77.2%, 51.5%)" stroke-width="1.5"></path><path d="M657.06 700.2L850.54 661.23" stroke="hsl(290.4, 77.2%, 51.5%)" stroke-width="1.5"></path><path d="M657.06 700.2L787.93 526.32" stroke="hsl(290.4, 77.2%, 51.5%)" stroke-width="1.5"></path><path d="M859.99 381.48L859.99 381.48" stroke="hsl(290.4, 77.2%, 51.5%)" stroke-width="1.5"></path><path d="M859.99 381.48L1005.25 409.78" stroke="hsl(290.4, 77.2%, 51.5%)" stroke-width="1.5"></path><path d="M859.99 381.48L787.93 526.32" stroke="hsl(290.4, 77.2%, 51.5%)" stroke-width="1.5"></path><path d="M859.99 381.48L989.36 535.66" stroke="hsl(290.4, 77.2%, 51.5%)" stroke-width="1.5"></path><path d="M787.93 526.32L787.93 526.32" stroke="hsl(290.4, 77.2%, 51.5%)" stroke-width="1.5"></path><path d="M787.93 526.32L850.54 661.23" stroke="hsl(290.4, 77.2%, 51.5%)" stroke-width="1.5"></path><path d="M787.93 526.32L989.36 535.66" stroke="hsl(290.4, 77.2%, 51.5%)" stroke-width="1.5"></path><path d="M850.54 661.23L850.54 661.23" stroke="hsl(290.4, 77.2%, 51.5%)" stroke-width="1.5"></path><path d="M850.54 661.23L946.33 659.68" stroke="hsl(290.4, 77.2%, 51.5%)" stroke-width="1.5"></path><path d="M850.54 661.23L989.36 535.66" stroke="hsl(290.4, 77.2%, 51.5%)" stroke-width="1.5"></path><path d="M1005.25 409.78L1005.25 409.78" stroke="hsl(290.4, 77.2%, 51.5%)" stroke-width="1.5"></path><path d="M1005.25 409.78L1098.41 409.9" stroke="hsl(290.4, 77.2%, 51.5%)" stroke-width="1.5"></path><path d="M1005.25 409.78L989.36 535.66" stroke="hsl(290.4, 77.2%, 51.5%)" stroke-width="1.5"></path><path d="M1005.25 409.78L1105.36 547.44" stroke="hsl(290.4, 77.2%, 51.5%)" stroke-width="1.5"></path><path d="M1005.25 409.78L787.93 526.32" stroke="hsl(290.4, 77.2%, 51.5%)" stroke-width="1.5"></path><path d="M1005.25 409.78L1137.13 194.57" stroke="hsl(290.4, 77.2%, 51.5%)" stroke-width="1.5"></path><path d="M989.36 535.66L989.36 535.66" stroke="hsl(290.4, 77.2%, 51.5%)" stroke-width="1.5"></path><path d="M989.36 535.66L1105.36 547.44" stroke="hsl(290.4, 77.2%, 51.5%)" stroke-width="1.5"></path><path d="M989.36 535.66L946.33 659.68" stroke="hsl(290.4, 77.2%, 51.5%)" stroke-width="1.5"></path><path d="M989.36 535.66L1112 646.32" stroke="hsl(290.4, 77.2%, 51.5%)" stroke-width="1.5"></path><path d="M989.36 535.66L1098.41 409.9" stroke="hsl(290.4, 77.2%, 51.5%)" stroke-width="1.5"></path><path d="M946.33 659.68L946.33 659.68" stroke="hsl(290.4, 77.2%, 51.5%)" stroke-width="1.5"></path><path d="M946.33 659.68L1112 646.32" stroke="hsl(290.4, 77.2%, 51.5%)" stroke-width="1.5"></path><path d="M946.33 659.68L1105.36 547.44" stroke="hsl(290.4, 77.2%, 51.5%)" stroke-width="1.5"></path><path d="M946.33 659.68L787.93 526.32" stroke="hsl(290.4, 77.2%, 51.5%)" stroke-width="1.5"></path><path d="M1137.13 194.57L1137.13 194.57" stroke="hsl(290.4, 77.2%, 51.5%)" stroke-width="1.5"></path><path d="M1137.13 194.57L1265.84 96.74" stroke="hsl(290.4, 77.2%, 51.5%)" stroke-width="1.5"></path><path d="M1137.13 194.57L1098.41 409.9" stroke="hsl(290.4, 77.2%, 51.5%)" stroke-width="1.5"></path><path d="M1137.13 194.57L1308.93 372.7" stroke="hsl(290.4, 77.2%, 51.5%)" stroke-width="1.5"></path><path d="M1137.13 194.57L1396.83 93.16" stroke="hsl(290.4, 77.2%, 51.5%)" stroke-width="1.5"></path><path d="M1098.41 409.9L1098.41 409.9" stroke="hsl(290.4, 77.2%, 51.5%)" stroke-width="1.5"></path><path d="M1098.41 409.9L1105.36 547.44" stroke="hsl(290.4, 77.2%, 51.5%)" stroke-width="1.5"></path><path d="M1105.36 547.44L1105.36 547.44" stroke="hsl(290.4, 77.2%, 51.5%)" stroke-width="1.5"></path><path d="M1105.36 547.44L1112 646.32" stroke="hsl(290.4, 77.2%, 51.5%)" stroke-width="1.5"></path><path d="M1105.36 547.44L1280.8 538.57" stroke="hsl(290.4, 77.2%, 51.5%)" stroke-width="1.5"></path><path d="M1112 646.32L1112 646.32" stroke="hsl(290.4, 77.2%, 51.5%)" stroke-width="1.5"></path><path d="M1112 646.32L1280.8 538.57" stroke="hsl(290.4, 77.2%, 51.5%)" stroke-width="1.5"></path><path d="M1112 646.32L1098.41 409.9" stroke="hsl(290.4, 77.2%, 51.5%)" stroke-width="1.5"></path><path d="M1240.83 -108.64L1240.83 -108.64" stroke="hsl(290.4, 77.2%, 51.5%)" stroke-width="1.5"></path><path d="M1240.83 -108.64L1265.84 96.74" stroke="hsl(290.4, 77.2%, 51.5%)" stroke-width="1.5"></path><path d="M1240.83 -108.64L1396.83 93.16" stroke="hsl(290.4, 77.2%, 51.5%)" stroke-width="1.5"></path><path d="M1240.83 -108.64L1268.89 192.76" stroke="hsl(290.4, 77.2%, 51.5%)" stroke-width="1.5"></path><path d="M1240.83 -108.64L1547.56 -96.17" stroke="hsl(290.4, 77.2%, 51.5%)" stroke-width="1.5"></path><path d="M1265.84 96.74L1265.84 96.74" stroke="hsl(290.4, 77.2%, 51.5%)" stroke-width="1.5"></path><path d="M1265.84 96.74L1396.83 93.16" stroke="hsl(290.4, 77.2%, 51.5%)" stroke-width="1.5"></path><path d="M1280.8 538.57L1280.8 538.57" stroke="hsl(290.4, 77.2%, 51.5%)" stroke-width="1.5"></path><path d="M1280.8 538.57L1426.06 493.22" stroke="hsl(290.4, 77.2%, 51.5%)" stroke-width="1.5"></path><path d="M1396.83 93.16L1396.83 93.16" stroke="hsl(290.4, 77.2%, 51.5%)" stroke-width="1.5"></path><path d="M1396.83 93.16L1539.35 86.77" stroke="hsl(290.4, 77.2%, 51.5%)" stroke-width="1.5"></path><path d="M1429.63 359.23L1429.63 359.23" stroke="hsl(290.4, 77.2%, 51.5%)" stroke-width="1.5"></path><path d="M1429.63 359.23L1559.67 365.31" stroke="hsl(290.4, 77.2%, 51.5%)" stroke-width="1.5"></path><path d="M1429.63 359.23L1426.06 493.22" stroke="hsl(290.4, 77.2%, 51.5%)" stroke-width="1.5"></path><path d="M1429.63 359.23L1553.34 501.92" stroke="hsl(290.4, 77.2%, 51.5%)" stroke-width="1.5"></path><path d="M1426.06 493.22L1426.06 493.22" stroke="hsl(290.4, 77.2%, 51.5%)" stroke-width="1.5"></path><path d="M1426.06 493.22L1553.34 501.92" stroke="hsl(290.4, 77.2%, 51.5%)" stroke-width="1.5"></path><path d="M1426.06 493.22L1559.67 365.31" stroke="hsl(290.4, 77.2%, 51.5%)" stroke-width="1.5"></path><path d="M1539.35 86.77L1539.35 86.77" stroke="hsl(290.4, 77.2%, 51.5%)" stroke-width="1.5"></path><path d="M1539.35 86.77L1566.18 195.56" stroke="hsl(290.4, 77.2%, 51.5%)" stroke-width="1.5"></path><path d="M1566.18 195.56L1566.18 195.56" stroke="hsl(290.4, 77.2%, 51.5%)" stroke-width="1.5"></path><path d="M1559.67 365.31L1559.67 365.31" stroke="hsl(290.4, 77.2%, 51.5%)" stroke-width="1.5"></path><path d="M1559.67 365.31L1553.34 501.92" stroke="hsl(290.4, 77.2%, 51.5%)" stroke-width="1.5"></path><path d="M1553.34 501.92L1553.34 501.92" stroke="hsl(290.4, 77.2%, 51.5%)" stroke-width="1.5"></path><path d="M1553.34 501.92L1553.7 658.51" stroke="hsl(290.4, 77.2%, 51.5%)" stroke-width="1.5"></path><path d="M1553.7 658.51L1553.7 658.51" stroke="hsl(290.4, 77.2%, 51.5%)" stroke-width="1.5"></path><path d="M1553.7 658.51L1426.06 493.22" stroke="hsl(290.4, 77.2%, 51.5%)" stroke-width="1.5"></path><path d="M1553.7 658.51L1270.18 686.54" stroke="hsl(290.4, 77.2%, 51.5%)" stroke-width="1.5"></path><circle r="25" cx="1268.89" cy="192.76" fill="url(&quot;#SvgjsRadialGradient1005&quot;)"></circle><circle r="25" cx="1308.93" cy="372.7" fill="url(&quot;#SvgjsRadialGradient1005&quot;)"></circle><circle r="25" cx="1270.18" cy="686.54" fill="url(&quot;#SvgjsRadialGradient1005&quot;)"></circle><circle r="25" cx="1389.99" cy="-64.95" fill="url(&quot;#SvgjsRadialGradient1005&quot;)"></circle><circle r="25" cx="1442.8" cy="252.62" fill="url(&quot;#SvgjsRadialGradient1005&quot;)"></circle><circle r="25" cx="1461.5" cy="654.6" fill="url(&quot;#SvgjsRadialGradient1005&quot;)"></circle><circle r="25" cx="1547.56" cy="-96.17" fill="url(&quot;#SvgjsRadialGradient1005&quot;)"></circle><circle r="5" cx="-70.93" cy="549.87" fill="#cd8bd9"></circle><circle r="5" cx="-106.92" cy="638.72" fill="#cd8bd9"></circle><circle r="5" cx="52.59" cy="550.33" fill="#cd8bd9"></circle><circle r="5" cx="44.75" cy="659.4" fill="#cd8bd9"></circle><circle r="5" cx="227.86" cy="678.68" fill="#cd8bd9"></circle><circle r="5" cx="364.89" cy="495.34" fill="#cd8bd9"></circle><circle r="5" cx="367.53" cy="674.49" fill="#cd8bd9"></circle><circle r="5" cx="533.22" cy="408.54" fill="#cd8bd9"></circle><circle r="5" cx="491.3" cy="494.75" fill="#cd8bd9"></circle><circle r="5" cx="520.93" cy="652.62" fill="#cd8bd9"></circle><circle r="5" cx="705.39" cy="410.04" fill="#cd8bd9"></circle><circle r="5" cx="652.79" cy="551.01" fill="#cd8bd9"></circle><circle r="5" cx="657.06" cy="700.2" fill="#cd8bd9"></circle><circle r="5" cx="859.99" cy="381.48" fill="#cd8bd9"></circle><circle r="5" cx="787.93" cy="526.32" fill="#cd8bd9"></circle><circle r="5" cx="850.54" cy="661.23" fill="#cd8bd9"></circle><circle r="5" cx="1005.25" cy="409.78" fill="#cd8bd9"></circle><circle r="5" cx="989.36" cy="535.66" fill="#cd8bd9"></circle><circle r="5" cx="946.33" cy="659.68" fill="#cd8bd9"></circle><circle r="5" cx="1137.13" cy="194.57" fill="#cd8bd9"></circle><circle r="5" cx="1098.41" cy="409.9" fill="#cd8bd9"></circle><circle r="5" cx="1105.36" cy="547.44" fill="#cd8bd9"></circle><circle r="5" cx="1112" cy="646.32" fill="#cd8bd9"></circle><circle r="5" cx="1240.83" cy="-108.64" fill="#cd8bd9"></circle><circle r="5" cx="1265.84" cy="96.74" fill="#cd8bd9"></circle><circle r="5" cx="1280.8" cy="538.57" fill="#cd8bd9"></circle><circle r="5" cx="1396.83" cy="93.16" fill="#cd8bd9"></circle><circle r="5" cx="1429.63" cy="359.23" fill="#cd8bd9"></circle><circle r="5" cx="1426.06" cy="493.22" fill="#cd8bd9"></circle><circle r="5" cx="1539.35" cy="86.77" fill="#cd8bd9"></circle><circle r="5" cx="1566.18" cy="195.56" fill="#cd8bd9"></circle><circle r="5" cx="1559.67" cy="365.31" fill="#cd8bd9"></circle><circle r="5" cx="1553.34" cy="501.92" fill="#cd8bd9"></circle><circle r="5" cx="1553.7" cy="658.51" fill="#cd8bd9"></circle></g><defs><mask id="SvgjsMask1003"><rect width="1440" height="560" fill="#ffffff"></rect></mask><linearGradient x1="84.72%" y1="-39.29%" x2="15.28%" y2="139.29%" gradientUnits="userSpaceOnUse" id="SvgjsLinearGradient1004"><stop stop-color="#0e2a47" offset="0"></stop><stop stop-color="rgba(255, 255, 255, 0)" offset="0.04"></stop><stop stop-color="rgba(255, 255, 255, 0)" offset="0.04"></stop><stop stop-color="rgba(255, 255, 255, 0)" offset="1"></stop></linearGradient><radialGradient id="SvgjsRadialGradient1005"><stop stop-color="#ffffff" offset="0.1"></stop><stop stop-color="rgba(154, 23, 179, 1)" offset="0.2"></stop><stop stop-color="rgba(154, 23, 179, 0)" offset="1"></stop></radialGradient></defs></svg>